<svg width="33" height="10" viewBox="0 0 33 10" fill="none" xmlns="http://www.w3.org/2000/svg">
<path d="M5.844 0.431999V6.3C5.844 6.444 5.836 6.596 5.82 6.756C5.812 6.908 5.792 7.068 5.76 7.236C5.712 7.564 5.584 7.876 5.376 8.172C5.184 8.468 4.896 8.712 4.512 8.904C4.144 9.104 3.636 9.204 2.988 9.204C2.612 9.204 2.264 9.152 1.944 9.048C1.608 8.952 1.308 8.796 1.044 8.58C0.78 8.372 0.568 8.1 0.408 7.764C0.248 7.42 0.168 7.02 0.168 6.564V5.808H1.848L3.96 4.86V0.431999H5.844ZM3.84 7.152C3.904 7.008 3.94 6.856 3.948 6.696C3.956 6.624 3.96 6.552 3.96 6.48C3.96 6.408 3.96 6.336 3.96 6.264L2.04 7.14C2.048 7.156 2.056 7.172 2.064 7.188C2.072 7.196 2.08 7.208 2.088 7.224C2.184 7.36 2.296 7.46 2.424 7.524C2.552 7.596 2.732 7.632 2.964 7.632C3.212 7.632 3.404 7.588 3.54 7.5C3.684 7.404 3.784 7.288 3.84 7.152ZM15.26 2.976C15.452 3.52 15.548 4.112 15.548 4.752C15.548 5.384 15.452 5.968 15.26 6.504C15.068 7.04 14.792 7.512 14.432 7.92C14.072 8.312 13.632 8.624 13.112 8.856C12.584 9.088 11.992 9.204 11.336 9.204C10.688 9.204 10.096 9.088 9.55997 8.856C9.03997 8.624 8.59997 8.312 8.23997 7.92C7.87997 7.512 7.60397 7.04 7.41197 6.504C7.21997 5.968 7.12397 5.384 7.12397 4.752C7.12397 4.112 7.21997 3.52 7.41197 2.976C7.60397 2.424 7.87997 1.944 8.23997 1.536C8.59997 1.128 9.03997 0.808 9.55997 0.576C10.096 0.344 10.688 0.228 11.336 0.228C11.992 0.228 12.584 0.344 13.112 0.576C13.632 0.808 14.072 1.128 14.432 1.536C14.792 1.944 15.068 2.424 15.26 2.976ZM9.53597 2.724C9.35197 2.988 9.21597 3.3 9.12797 3.66C9.11197 3.716 9.09997 3.772 9.09197 3.828C9.08397 3.876 9.07597 3.928 9.06797 3.984H13.604C13.588 3.928 13.576 3.876 13.568 3.828C13.568 3.772 13.56 3.716 13.544 3.66C13.504 3.484 13.448 3.32 13.376 3.168C13.304 3.008 13.224 2.86 13.136 2.724C12.952 2.436 12.712 2.216 12.416 2.064C12.112 1.896 11.752 1.812 11.336 1.812C10.904 1.812 10.544 1.896 10.256 2.064C9.95997 2.216 9.71997 2.436 9.53597 2.724ZM13.136 6.732C13.224 6.596 13.304 6.452 13.376 6.3C13.448 6.14 13.504 5.976 13.544 5.808L13.616 5.448H9.05597L9.12797 5.808C9.21597 6.16 9.35197 6.468 9.53597 6.732C9.71197 6.996 9.95197 7.212 10.256 7.38C10.544 7.548 10.904 7.632 11.336 7.632C11.752 7.632 12.112 7.548 12.416 7.38C12.712 7.212 12.952 6.996 13.136 6.732ZM24.3118 9H22.3558L18.4558 7.224L17.8318 9H15.9358L19.1758 0.42H21.1078L24.3118 9ZM18.8878 6.012L21.7798 7.332L20.1358 2.532H20.1118L18.8878 6.012ZM30.5227 0.42H32.2867V9H30.4027L26.8147 5.46V9H25.0507V0.42H26.9227L30.5227 3.96V0.42ZM26.8147 3.396L30.5227 7.044V6.024L26.8147 2.364V3.396Z" fill="black"/>
</svg>
